<svg width="529" class="logo-navbar" height="73" fill="none" xmlns="http://www.w3.org/2000/svg"><g fill="#fff"><path d="M60.934 45.68c0-6.946-3.563-10.473-11.52-10.473-8.469 0-13.16 4.8-13.16 12.145v22.363H30.78V44.078c0-4.797-3.515-8.871-10.98-8.871-7.89 0-13.692 4.438-13.692 13.2v21.308H.621V31.863H6.11v6.98h.157c2.289-3.98 6.472-8.183 15.289-8.183 8.691 0 12.726 4.547 13.816 8.313 1.863-3.766 7.41-8.313 15.172-8.313 10.855 0 15.89 5.402 15.89 13.219v25.836h-5.5M107.512 49.336c-2.473 1.508-6.172 1.816-17.168 2.836-6.367.582-10.121 2.453-10.121 6.941 0 5.93 5.21 7.672 11.171 7.672 7.418 0 16.118-3.926 16.118-11.707v-5.742Zm-31.063-5.8c.813-7.946 5.203-12.872 18.403-12.872 12.906 0 17.679 3.961 17.679 11.215v19.836c0 3.07.871 4.2 3.063 4.2.98 0 1.898-.09 2.89-.165v3.676c-1.109.18-2.816.558-4.597.558-5.59 0-5.891-3.722-5.957-6.687h-.172c-1.653 2.453-5.399 7.562-18.027 7.562-6.598 0-14.989-2.836-14.989-11.328 0-10.304 10.762-11.453 19.262-11.886 11.973-.637 13.508-1.31 13.508-5 0-5.493-3.746-7.438-12.79-7.438-8.69 0-12.843 2.273-13.206 8.328M123.984 31.863h5.481v8.633h.164c1.98-4.523 5.617-9.836 14.762-9.836 1.582 0 2.492.164 3.285.34v5.516a27.697 27.697 0 0 0-5.039-.453c-5.961 0-13.172 3.581-13.172 14.343v19.309h-5.481M192.59 56.152c-1.028 4.946-5.5 14.707-19.492 14.707-13.996 0-21.797-8.199-21.797-20.082 0-11.332 7.121-20.117 21.797-20.117 13.191 0 18.343 8.074 19.199 13.567h-5.473c-1.726-6.493-6.906-9.02-13.726-9.02-11.11 0-16.289 6.855-16.289 15.57 0 9.375 5.793 15.59 16.289 15.59 8.093 0 12.589-4.324 13.992-10.215M200.535 17.316h5.496v21.961h.157c1.617-4 7.453-8.613 15.98-8.613 12.871 0 16.699 6.598 16.699 15.598v23.453h-5.48V45.316c0-7.507-4.711-10.109-11.657-10.109-10.761 0-15.699 5.363-15.699 13.945v20.563h-5.496M285.156 48.008c-1.574-9.29-8.574-12.801-15.898-12.801-7.094 0-14.637 3.527-15.91 12.8h31.808Zm4.489 9.617c-2.207 6.707-7.989 13.234-20.797 13.234-15.774 0-20.973-10.851-20.973-20.082 0-10.57 6.574-20.113 20.973-20.113 9.98 0 21.769 4.234 21.769 21.434h-37.269c0 7.851 5.738 14.27 15.5 14.27 9.234 0 13.398-3.016 15.316-8.743"/></g><g class="com-br" fill="#b3b836"><path d="M306.496 70.684c-.797 0-1.578-.082-2.348-.246a3.191 3.191 0 0 1-1.902-1.196c-.504-.633-.754-1.66-.754-3.078 0-1.742.274-3.047.82-3.922.543-.867 1.278-1.445 2.192-1.726.918-.278 1.918-.418 3.012-.418.828 0 1.625.082 2.39.242.77.164 1.399.554 1.883 1.176.488.617.731 1.636.731 3.054 0 4.075-2.008 6.114-6.024 6.114ZM328.289 70.238c-4.605 0-7.988-1.469-10.144-4.406-2.153-2.937-3.231-6.988-3.231-12.156 0-2.688.367-5.532 1.106-8.528a34.217 34.217 0 0 1 3.277-8.414c1.445-2.617 3.234-4.746 5.359-6.402 2.125-1.652 4.574-2.48 7.352-2.48 2.597 0 4.578.746 5.937 2.238 1.356 1.488 2.035 3.328 2.035 5.512 0 2.304-.515 4.27-1.546 5.89-.653 1.004-1.539 1.508-2.661 1.508-1.386 0-2.082-.324-2.082-.973 0-.238.118-.535.356-.886 1.152-1.684 1.726-3.309 1.726-4.871 0-.918-.226-1.657-.683-2.215-.461-.563-1.028-.844-1.707-.844-2.188 0-4.031 2.496-5.535 7.484-1.328 4.371-1.996 8.918-1.996 13.645 0 1.476.14 3.02.421 4.629.282 1.61.782 2.972 1.504 4.093.727 1.126 1.766 1.684 3.125 1.684 1.535 0 3.055-.617 4.563-1.86 4.695-3.925 8.562-10.835 11.601-20.73.239-.824.797-1.238 1.684-1.238.738 0 1.285.25 1.641.754.234.355.351.738.351 1.152 0 .324-.5 1.992-1.504 5.004-1.859 5.61-4.386 10.496-7.574 14.66-4.016 5.168-8.477 7.75-13.375 7.75Z"/><path d="M366.156 52.7c.621-3.364.934-6.806.934-10.321 0-2.953-.207-5.344-.621-7.176-.621-2.656-1.817-3.984-3.59-3.984-1.004 0-1.785.508-2.348 1.527-.558 1.02-.949 2.23-1.172 3.633-.222 1.402-.332 2.695-.332 3.875 0 2.953.606 5.434 1.817 7.441 1.328 2.274 3.097 3.942 5.312 5.004Zm-6.109 11.737c2.094 0 3.82-2.507 5.18-7.53-3.692-1.356-6.481-3.852-8.372-7.485a78.77 78.77 0 0 0-.218 5.492c0 1.742.093 3.34.285 4.785.191 1.446.539 2.598 1.043 3.453.5.86 1.195 1.285 2.082 1.285Zm-.887 5.004c-2.39 0-4.371-.62-5.937-1.859-4.336-3.394-6.508-9.848-6.508-19.355 0-2.274.152-4.786.465-7.532.308-2.746 1.246-4.972 2.812-6.687.914-1.004 2.125-1.504 3.629-1.504.859 0 1.582.086 2.172.266 1.535-3.868 4.016-5.805 7.441-5.805 6.024 0 9.036 4.918 9.036 14.75 0 4.254-.356 8.297-1.063 12.137 3.984-.028 6.953-3.012 8.902-8.946.325-1.035.614-1.957.864-2.77.25-.812.836-1.218 1.75-1.218.707 0 1.254.25 1.636.754.239.355.356.738.356 1.152 0 .383-.356 1.637-1.063 3.766-2.422 7.41-6.879 11.144-13.375 11.203-2.246 7.766-5.949 11.648-11.117 11.648Z"/><path d="M425.508 72.012c-3.426 0-5.832-1.504-7.219-4.52-1.387-3.011-2.082-7.469-2.082-13.375 0-2.273.059-4.43.176-6.465.121-1.625.179-3.277.179-4.96l-.042-2.04c-.032-1.593-.313-2.39-.844-2.39-.973 0-1.883.988-2.723 2.965-.844 1.98-1.598 4.386-2.262 7.222a121.07 121.07 0 0 0-1.66 8.414 71.537 71.537 0 0 1-.797 4.297c-.324 1.504-.812 2.805-1.461 3.899-.652 1.09-1.535 1.636-2.66 1.636-2.683 0-4.027-2.629-4.027-7.882l.043-12.227c0-1.77-.133-3.305-.399-4.605-.265-1.301-.664-1.95-1.195-1.95-1.062 0-2.097 1.102-3.097 3.301-1.008 2.2-1.915 4.8-2.727 7.797a99.27 99.27 0 0 0-1.949 8.613c-.489 2.746-.731 4.711-.731 5.89 0 1.891-.332 3.13-.996 3.72-.664.593-1.5.886-2.504.886-2.093 0-3.394-.93-3.898-2.789-1.121-4.105-1.68-11.281-1.68-21.523 0-5.762.133-10.012.399-12.758.117-1.121.418-1.965.906-2.527.488-.559 1.137-.93 1.949-1.106a12.665 12.665 0 0 1 2.68-.265c.855 0 1.683.058 2.48.175.797.121 1.461.407 1.992.864.532.46.797 1.203.797 2.238 0 1.094-.086 2.23-.265 3.41a143.383 143.383 0 0 0-.93 8.195c3.25-8.27 7-12.402 11.25-12.402 1.594 0 2.84.45 3.742 1.352.902.902 1.559 2.05 1.973 3.453.414 1.402.664 2.87.75 4.406.801-2.094 1.746-3.992 2.836-5.691 1.093-1.696 2.347-3.063 3.765-4.094 1.418-1.035 3.012-1.551 4.785-1.551 1.77 0 3.153.492 4.141 1.484.988.989 1.692 2.309 2.102 3.961.414 1.657.621 3.485.621 5.492 0 3.813-.086 7.711-.266 11.696a221.914 221.914 0 0 0-.222 9.433c0 2.836.324 4.25.976 4.25 1.297 0 3.129-2.523 5.488-7.574 2.66-5.726 4.743-11.129 6.246-16.21.239-.825.797-1.239 1.688-1.239.734 0 1.297.25 1.68.754.238.324.355.691.355 1.105 0 .239-.043.489-.133.754-3.277 10.336-6.246 17.719-8.902 22.145-2.539 4.222-5.316 6.336-8.328 6.336ZM446.371 70.684c-.801 0-1.582-.082-2.351-.246-.766-.16-1.399-.56-1.903-1.196-.504-.633-.754-1.66-.754-3.078 0-1.742.274-3.047.821-3.922.546-.867 1.277-1.445 2.195-1.726.914-.278 1.918-.418 3.012-.418a11.7 11.7 0 0 1 2.39.242 3.172 3.172 0 0 1 1.883 1.176c.484.617.731 1.636.731 3.054 0 4.075-2.008 6.114-6.024 6.114ZM462.445 70.238c-2.093 0-3.379-.957-3.851-2.879-1.242-4.87-1.86-13.21-1.86-25.023 0-6.23.153-13.016.465-20.352.309-7.336.641-13.308.996-17.918.09-1.152.45-2.011 1.086-2.59.633-.574 1.422-.945 2.367-1.109a17.23 17.23 0 0 1 2.879-.242c.86 0 1.692.063 2.504.18.813.117 1.477.414 1.992.882.516.473.778 1.243.778 2.305 0 1.121-.09 2.453-.266 3.985-1.332 11.43-2.336 24.097-3.012 38.004l1.016-3.012c.856-2.63 1.898-5.043 3.125-7.242 1.223-2.2 2.656-3.98 4.297-5.336 1.637-1.36 3.535-2.04 5.691-2.04 1.801 0 3.336.837 4.606 2.505 1.269 1.667 1.902 4.14 1.902 7.417 0 2.63-.191 5.403-.574 8.329-.797 5.843-2.274 10.867-4.43 15.058 4.254-2.215 7.602-6.129 10.055-11.738a65.532 65.532 0 0 0 2.57-7.266c.235-.824.797-1.238 1.684-1.238.734 0 1.297.25 1.68.754.238.324.355.691.355 1.105 0 .297-.504 1.98-1.508 5.051-3.453 11.016-9.965 17.524-19.531 19.531-1.828 1.567-3.899 2.348-6.199 2.348-1.567 0-2.793-.508-3.676-1.527-.887-1.02-1.328-2.207-1.328-3.567 0-1.593.691-2.39 2.082-2.39.648 0 1.531.207 2.656.62 1.535-1.269 2.848-3.78 3.942-7.53 1.503-5.047 2.257-10.407 2.257-16.079 0-.828-.117-1.504-.351-2.035-.239-.535-.578-.797-1.02-.797-.769 0-1.699 1.164-2.793 3.496-2.125 4.52-4.074 10.16-5.843 16.922-.594 2.364-.961 4.34-1.11 5.934-.09 1.18-.273 2.723-.555 4.629-.281 1.902-1.304 2.855-3.078 2.855Z"/><path d="M511.965 70.238c-3.453 0-6.043-1.304-7.774-3.918-1.726-2.613-2.589-6.207-2.589-10.785 0-2.48.308-5.535.929-9.168.621-3.633 1.285-6.629 1.992-8.992a22.374 22.374 0 0 1-4.121-1.594c-.675 2.98-1.355 5.567-2.035 7.75-.265.856-.828 1.285-1.683 1.285-.739 0-1.301-.265-1.68-.797a1.762 1.762 0 0 1-.356-1.066c0-.234.043-.5.129-.797.801-2.332 1.465-5.297 1.996-8.898-2.039-1.864-3.058-4.121-3.058-6.778v-1.773c0-1.594.387-2.633 1.152-3.121.77-.488 1.875-.73 3.324-.73.59 0 1.196.05 1.817.152.621.105 1.129.332 1.527.687.399.356.598.903.598 1.64 0 2.45-.266 4.99-.797 7.618 1.652 1.918 4.355 3.277 8.105 4.074 2.153.442 3.719 1.063 4.696 1.86.648.531.972 1.449.972 2.746 0 .976-.222 2.469-.664 4.472-1.386 6.47-2.082 11.739-2.082 15.817 0 2.832.516 4.25 1.551 4.25 1.356 0 3.305-2.879 5.848-8.637a121.715 121.715 0 0 0 4.914-13.379c.238-.824.828-1.238 1.769-1.238.711 0 1.258.25 1.641.754.234.355.355.738.355 1.152 0 .442-.871 3.203-2.613 8.282-4.461 12.753-9.082 19.132-13.863 19.132Z"/></g></svg>